<?xml version="1.0" standalone="no"?>
<!DOCTYPE svg PUBLIC "-//W3C//DTD SVG 20010904//EN"
 "http://www.w3.org/TR/2001/REC-SVG-20010904/DTD/svg10.dtd">
<svg version="1.0" xmlns="http://www.w3.org/2000/svg"
 width="3500.000000pt" height="1070.000000pt" viewBox="0 0 3500.000000 1070.000000"
 preserveAspectRatio="xMidYMid meet">

<g transform="translate(0.000000,1070.000000) scale(0.100000,-0.100000)"
fill="#000000" stroke="none">
<path d="M1665 10688 c-2 -7 -376 -1779 -830 -3938 -454 -2159 -828 -3933
-831 -3942 -5 -17 798 -18 16763 -18 l16768 0 729 3943 c401 2168 731 3948
734 3955 3 9 -3333 12 -16662 12 -13324 0 -16667 -3 -16671 -12z m4225 -778
c613 -35 1063 -160 1385 -385 291 -203 460 -490 522 -887 18 -116 26 -528 11
-544 -6 -6 -1687 -103 -1804 -104 l-41 0 -7 108 c-4 59 -14 140 -22 181 -73
355 -337 517 -814 498 -171 -7 -275 -30 -396 -86 -188 -88 -290 -205 -330
-377 -19 -85 -8 -148 41 -221 79 -120 250 -189 746 -303 1146 -264 1657 -467
1994 -791 118 -114 188 -210 250 -342 98 -209 129 -354 129 -602 0 -590 -255
-1145 -741 -1616 -460 -445 -1038 -706 -1789 -808 -631 -86 -1429 -53 -1955
79 -401 101 -667 252 -874 495 -325 381 -464 850 -415 1404 6 63 12 116 13
117 1 2 230 17 507 33 278 17 690 42 915 56 226 14 420 25 432 25 22 0 22 -2
21 -157 -1 -352 89 -570 297 -718 139 -100 294 -144 530 -152 391 -13 668 83
877 306 160 170 227 391 168 559 -28 79 -104 187 -164 232 -138 103 -381 189
-886 314 -546 135 -820 226 -1115 371 -216 105 -359 201 -486 322 -268 258
-388 531 -389 887 0 328 106 660 308 962 244 363 522 602 937 804 291 142 522
216 855 274 351 62 876 89 1290 66z m8210 -123 c0 -7 -61 -297 -135 -645 -74
-348 -135 -635 -135 -637 0 -3 -736 -5 -1635 -5 l-1635 0 -5 -22 c-9 -39 -195
-940 -195 -944 0 -2 681 -5 1513 -6 l1513 -3 -127 -596 c-69 -328 -129 -608
-133 -622 l-6 -27 -1514 0 -1513 0 -47 -222 c-25 -123 -81 -389 -124 -593
l-78 -370 1676 -5 c1481 -4 1675 -7 1673 -20 -1 -12 -229 -1108 -275 -1322
l-10 -48 -2654 0 c-1804 0 -2654 3 -2654 10 0 6 286 1355 636 2998 349 1643
640 3011 646 3040 l11 52 2603 0 c2128 0 2604 -2 2604 -13z m4035 3 c421 -35
756 -119 1005 -252 266 -142 464 -316 615 -543 215 -323 311 -645 335 -1135
22 -429 -26 -849 -156 -1375 -136 -550 -293 -951 -494 -1259 -402 -616 -986
-1097 -1581 -1301 -209 -72 -601 -155 -949 -202 -112 -15 -294 -17 -1743 -20
-1549 -3 -1618 -3 -1613 14 3 10 88 414 190 898 601 2858 1087 5162 1091 5173
6 15 3110 18 3300 2z m8279 -32 c-4 -18 -66 -310 -139 -648 l-131 -615 -1635
-3 -1634 -2 -100 -483 -100 -482 1512 -3 c832 -1 1513 -3 1513 -5 0 -2 -58
-279 -130 -617 -71 -337 -130 -617 -130 -621 0 -5 -681 -9 -1514 -9 -1434 0
-1515 -1 -1520 -17 -8 -26 -246 -1162 -246 -1173 0 -7 588 -10 1675 -10 921 0
1675 -2 1675 -4 0 -8 -281 -1350 -286 -1368 -5 -17 -140 -18 -2660 -18 -1460
0 -2654 2 -2654 4 0 7 1291 6071 1296 6089 5 16 138 17 2610 17 l2606 0 -8
-32z m2719 -30 c13 -35 174 -456 358 -935 183 -480 336 -873 339 -873 3 1 335
421 738 935 l733 935 1062 0 1061 0 -26 -27 c-14 -16 -593 -680 -1287 -1476
l-1262 -1448 741 -1569 c407 -862 740 -1573 740 -1579 0 -16 -2166 -15 -2176
1 -4 6 -193 450 -420 986 l-412 974 -497 -589 c-274 -323 -644 -762 -824 -975
l-326 -387 -1083 0 c-596 -1 -1082 3 -1080 7 2 4 638 719 1413 1587 776 868
1409 1584 1407 1589 -2 6 -309 659 -683 1451 -373 792 -679 1443 -679 1448 0
4 481 7 1069 7 l1069 0 25 -62z"/>
<path d="M16506 8412 c-2 -4 -158 -746 -346 -1648 -188 -901 -344 -1647 -347
-1657 -5 -18 11 -19 439 -14 475 5 569 12 764 62 226 57 420 191 597 412 191
237 327 601 450 1208 65 316 72 384 71 670 0 250 -1 264 -27 360 -79 296 -253
457 -584 541 -149 38 -308 52 -653 59 -173 3 -325 8 -337 11 -12 2 -24 0 -27
-4z"/>
<path d="M24239 2200 c-228 -36 -394 -191 -429 -399 -8 -47 -10 -229 -7 -592
3 -473 5 -532 23 -610 42 -185 150 -293 344 -346 50 -14 103 -18 225 -18 192
0 259 17 376 93 166 109 196 182 206 505 l6 187 -247 0 -246 0 0 -199 c0 -114
-5 -211 -11 -229 -19 -55 -103 -67 -145 -20 -18 19 -19 50 -19 633 0 583 1
614 19 633 42 47 126 35 145 -20 7 -19 11 -125 11 -264 l0 -234 246 0 246 0
-5 208 c-5 213 -18 300 -59 409 -39 104 -179 208 -333 248 -73 19 -269 27
-346 15z"/>
<path d="M20030 2189 c-136 -11 -241 -60 -335 -155 -30 -31 -66 -80 -80 -111
-52 -109 -55 -145 -55 -718 0 -573 3 -609 55 -718 51 -109 201 -220 341 -253
91 -21 288 -20 368 1 126 33 250 124 309 226 15 25 36 82 48 126 19 77 20 106
17 644 -3 552 -4 565 -25 630 -41 119 -126 210 -260 278 -87 44 -231 62 -383
50z m160 -339 c16 -23 17 -70 11 -635 -7 -656 -7 -659 -58 -672 -33 -8 -71 12
-83 43 -13 33 -13 1164 0 1219 17 74 93 100 130 45z"/>
<path d="M28543 2189 c-196 -19 -351 -113 -417 -253 -44 -93 -51 -192 -51
-776 l0 -535 27 -78 c51 -141 120 -227 231 -283 206 -105 388 -73 507 88 l28
38 25 -68 25 -67 156 -3 156 -3 0 511 0 510 -290 0 -291 0 3 -142 3 -143 48
-3 47 -3 0 -163 c0 -176 -15 -257 -50 -276 -32 -17 -70 -11 -95 15 l-25 24 0
610 c0 375 4 620 10 636 13 34 55 50 92 34 40 -16 48 -58 48 -246 l0 -163 246
0 247 0 -6 163 c-10 256 -36 339 -136 429 -130 117 -319 169 -538 147z"/>
<path d="M30060 2189 c-88 -7 -167 -32 -233 -72 -62 -38 -152 -133 -181 -193
-52 -106 -56 -159 -56 -719 0 -561 4 -613 56 -720 55 -112 216 -227 357 -255
75 -15 260 -15 335 0 163 34 308 159 363 315 26 74 38 279 38 655 0 384 -12
592 -38 665 -42 117 -126 207 -258 274 -87 44 -231 62 -383 50z m154 -325 c9
-8 17 -21 17 -27 1 -7 1 -280 0 -607 -2 -403 -6 -607 -14 -634 -12 -43 -42
-62 -81 -52 -56 14 -56 13 -56 643 0 318 5 596 10 618 5 22 19 48 31 58 26 21
72 22 93 1z"/>
<path d="M14115 2128 c-8 -48 -105 -821 -105 -837 0 -55 -18 50 -120 714 -11
71 -24 133 -28 137 -5 5 -150 7 -323 6 l-314 -3 -3 -952 -2 -953 215 0 215 0
1 618 c0 339 2 613 4 607 2 -5 40 -273 85 -595 44 -322 83 -595 86 -608 4 -22
7 -22 153 -22 l149 0 6 27 c3 16 42 294 86 618 44 325 82 595 84 600 3 6 5
-272 5 -617 l1 -628 215 0 215 0 0 960 0 960 -310 0 -309 0 -6 -32z"/>
<path d="M21072 1383 c3 -718 5 -782 22 -833 59 -179 153 -267 343 -317 80
-21 121 -26 228 -26 144 -1 183 7 293 59 136 65 234 197 253 340 4 38 8 403 9
812 l0 742 -260 0 -260 0 -2 -796 -3 -796 -24 -19 c-33 -27 -67 -24 -88 8 -17
25 -18 80 -21 815 l-3 788 -245 0 -245 0 3 -777z"/>
<path d="M31100 1448 c0 -737 5 -858 40 -951 70 -186 266 -289 555 -290 142
-1 180 7 291 58 129 59 232 191 253 325 7 41 11 340 11 818 l0 752 -260 0
-260 0 -2 -796 -3 -796 -24 -19 c-33 -27 -67 -24 -88 8 -17 25 -18 80 -21 815
l-3 788 -244 0 -245 0 0 -712z"/>
<path d="M15276 2113 c-10 -61 -246 -1847 -246 -1861 0 -10 55 -12 258 -10
l257 3 12 150 c6 83 12 158 12 168 1 15 12 17 89 17 l89 0 12 -167 c7 -92 14
-169 15 -171 2 -1 115 -1 252 0 l249 3 -143 940 c-78 517 -144 946 -147 953
-3 9 -83 12 -354 12 l-349 0 -6 -37z m410 -848 c14 -148 27 -287 31 -307 l6
-38 -87 0 -86 0 0 48 c0 48 29 281 71 582 l24 165 8 -90 c4 -49 19 -211 33
-360z"/>
<path d="M16557 2143 c-4 -3 -7 -433 -7 -955 l0 -948 210 0 210 0 2 427 3 427
94 -324 c51 -179 107 -371 124 -427 l30 -103 213 0 214 0 0 955 0 955 -200 0
-200 0 -1 -427 -1 -428 -53 160 c-30 88 -93 280 -140 428 l-87 267 -202 0
c-112 0 -206 -3 -209 -7z"/>
<path d="M18030 1190 l0 -960 378 0 c509 0 622 19 700 118 78 98 84 167 80
902 l-3 575 -32 66 c-65 131 -145 193 -291 225 -70 15 -433 33 -684 34 l-148
0 0 -960z m595 626 c18 -8 42 -27 52 -42 17 -26 18 -62 18 -564 0 -594 -1
-610 -57 -629 -17 -6 -44 -11 -59 -11 l-29 0 0 630 c0 627 0 630 20 630 11 0
36 -6 55 -14z"/>
<path d="M25367 2143 c-4 -3 -7 -433 -7 -955 l0 -948 245 0 245 0 0 405 0 405
75 0 75 0 0 -405 0 -405 250 0 250 0 -2 953 -3 952 -245 0 -245 0 -3 -343 -2
-343 -73 3 -72 3 -3 343 -2 342 -238 0 c-131 0 -242 -3 -245 -7z"/>
<path d="M26900 1195 l0 -955 430 0 430 0 0 190 0 190 -185 0 -185 0 0 205 0
204 158 3 157 3 3 183 2 182 -160 0 -160 0 0 185 0 185 165 0 165 0 -2 188 -3
187 -407 3 -408 2 0 -955z"/>
<path d="M22532 443 l3 -188 38 -3 c36 -3 38 -5 33 -30 -4 -15 -22 -42 -41
-60 -33 -30 -35 -36 -35 -97 l0 -65 28 6 c116 27 210 106 265 222 31 65 32 71
35 235 l4 167 -166 0 -166 0 2 -187z"/>
<path d="M32580 435 l0 -195 175 0 175 0 0 195 0 195 -175 0 -175 0 0 -195z"/>
</g>
</svg>
